<?xml version="1.0" ?><svg viewBox="0 0 22 30" xmlns="http://www.w3.org/2000/svg" fill="#FFF"><title/><g data-name="Layer 2" id="Layer_2"><g id="Interface-Solid"><g id="work-business-solid-task-list-2"><path d="M5,16H9a1,1,0,0,0,0-2H5a1,1,0,0,0,0,2Z" fill="none"/><rect fill="none" height="2" width="6" x="8" y="2"/><path d="M16,22H5a1,1,0,0,0,0,2H16a1,1,0,0,0,0-2Z" fill="none"/><path d="M16,18H5a1,1,0,0,0,0,2H16a1,1,0,0,0,0-2Z" fill="none"/><path d="M7,6h8a.99974.99974,0,0,0,1-1V1a.99974.99974,0,0,0-1-1H7A.99974.99974,0,0,0,6,1V5A.99974.99974,0,0,0,7,6ZM8,2h6V4H8Z"/><path d="M19,2H17.5a.5.5,0,0,0-.5.5V5a2,2,0,0,1-2,2H7A2,2,0,0,1,5,5V2.5A.5.5,0,0,0,4.5,2H3A3,3,0,0,0,0,5V27a3,3,0,0,0,3,3H19a3,3,0,0,0,3-3V5A3,3,0,0,0,19,2ZM5,14H9a1,1,0,0,1,0,2H5a1,1,0,0,1,0-2ZM16,24H5a1,1,0,0,1,0-2H16a1,1,0,0,1,0,2Zm0-4H5a1,1,0,0,1,0-2H16a1,1,0,0,1,0,2Z"/></g></g></g></svg>